<svg xmlns="http://www.w3.org/2000/svg" xml:space="preserve" style="enable-background:new 0 0 491.9 168" viewBox="0 0 491.9 168"><path fill="#fff" d="M491.9 91v37c-4.3 4.8-9.7 7.4-16.1 7.9-9.3.7-18.6 1.2-27.8 1.8-1.9.1-3.9 0-5.5 0-.7 1.5-1.1 2.2-1.4 3-5.9 14.5-16.5 23.4-31.9 26.4-.8.2-1.5.7-2.2 1h-10c-.9-.4-1.7-.9-2.7-1.1-14.4-3.1-24.4-11.5-30.4-24.9-.6-1.3-1.3-2.7-1.9-4H142.4c-.5 1.1-.9 1.8-1.2 2.6-5.9 14.5-16.5 23.4-31.9 26.4-.8.2-1.5.7-2.2 1h-10c-.9-.4-1.7-.9-2.7-1.1C80 163.9 70 155.5 64 142.1c-.6-1.3-1.3-2.7-2.1-4.3h-5.5c-10.7 0-21.3.1-32 0-14.9-.2-23.9-7.9-24-21.7-.1-13.2-1.5-26.5 1.7-39.7C4 68 4 59.4 5.2 51 6.6 40.7 12 35.8 22.3 36.3c13.2.7 25.6-1.7 38.1-5.7 31-9.6 62.3-18.6 93.5-27.8 3.3-1 6.6-1.9 10-2.8h92c3.8 1.6 7.7 3 11.3 4.9 18.7 9.8 37.5 19.5 56 29.7 8.8 4.9 17.4 9.8 28 8.8.3 0 .7.1 1 .1 14.8 1.2 29.5 2.5 44.3 3.6 14.6 1.1 29.2 1.9 43.6 5.1 10.8 2.3 21.3 5.3 30.9 10.9 10.2 6 17.6 14.2 19.9 26.2.1.6.6 1.1 1 1.7zm-131.5 34.9c.7-11.7 4.5-22 13.1-30 8.6-8.1 18.8-12 30.5-11.4 21.9 1.1 35 14.7 40.4 41.7 11.8-.1 23.8.8 35.6-3.4 0-10.7.1-20.8-.1-31-.1-2.5-1.4-4.9-2.3-7.7-5.5 6.3-9.6 7.1-16.7 3.7-6.2-3-8.4-6.7-7.2-13.2 2.3-.9 4.9-2 8-3.3-6.4-3.7-13-5.7-19.8-7.5-19.8-5.1-40.1-6.4-60.4-6.7-55.3-.9-110.6-1.6-165.9-2.3-31-.4-62-.7-92.9-1.1-5.4-.1-6.3-.7-8.2-5.4 1.9-6 3.4-8.9 8.6-12.4 9.5-6.4 19.4-12.3 29.1-18.4 1.4-.9 2.8-1.7 4.3-2.6-.2-.3-.3-.6-.5-.9-6.7 1.7-13.5 3.2-20.2 5.3-27 8.2-54 16.5-81 25-7.9 2.5-15.7 4.1-24 3.5-4.3-.3-8.6 0-12.6 0-1.8 4.3-3.4 7.9-2.1 12.7h15.2v17.3h-18c-.6 3.5-1.5 6.7-1.6 9.9-.2 8.5-.1 17-.1 25.5 0 9.9 3.1 13 13.2 13.1h35.5c.7-11.9 4.5-22.1 13-30.2 8.5-8.1 18.8-12 30.4-11.6 9.6.3 18.2 3.8 25.5 10.1 9.5 8.2 13.9 18.8 14.7 31.4 72.1-.1 143.9-.1 216.5-.1zM102 95.7c-16.7 0-30.1 13.4-30.1 30.1 0 16.7 13.8 30.5 30.5 30.4 16.6-.1 29.9-13.5 29.9-30.3 0-17.1-13.2-30.2-30.3-30.2zM432.2 126c.7-16.8-14.2-30.3-29.7-30.5-13.2-.2-30.1 9.4-30.7 30.1-.4 16.7 13.6 30.6 30.3 30.5 16.7 0 30-13.3 30.1-30.1zM209.4 44.3c30.8.8 60.7 1.5 91.6 2.2-2.1-4.8.7-7 4-9.4-15.5-8.7-30.2-17.5-46.3-23.5-3.5-1.3-7.4-1.8-11.2-1.9-12.3-.2-24.6-.1-36.9-.1-1.8 0-3.6.2-5.9.3 1.6 11 3.1 21.4 4.7 32.4zm-16.2-32.6c-21.2 7.6-40.3 17-57.8 29.5.1.5.2 1 .4 1.5 20.5.5 40.9.9 62.1 1.4-1.6-11.2-3.1-21.5-4.7-32.4z" class="st0"/></svg>