<?xml version="1.0" encoding="utf-8"?>
<!-- Generator: Adobe Illustrator 25.0.0, SVG Export Plug-In . SVG Version: 6.00 Build 0)  -->
<svg version="1.1" id="Layer_1" xmlns="http://www.w3.org/2000/svg" xmlns:xlink="http://www.w3.org/1999/xlink" x="0px" y="0px"
	 viewBox="0 0 25 24" style="enable-background:new 0 0 25 24;" xml:space="preserve">
<style type="text/css">
	.st0{fill:#D90000;}
</style>
<path class="st0" d="M22.4,3.8H2.9c-0.4,0-0.8,0.3-0.8,0.8v15c0,0.4,0.3,0.8,0.8,0.8h19.5c0.4,0,0.8-0.3,0.8-0.8v-15
	C23.2,4.1,22.8,3.8,22.4,3.8z M21.5,6.3v12.2H3.9V6.3L3.2,5.8l0.9-1.2l1,0.8h15.1l1-0.8l0.9,1.2L21.5,6.3z M20.2,5.4l-7.5,5.9
	L5.1,5.4l-1-0.8L3.2,5.8l0.6,0.5l8,6.2c0.2,0.2,0.5,0.3,0.8,0.3s0.6-0.1,0.8-0.3l8-6.2L22,5.8l-0.9-1.2L20.2,5.4z"/>
</svg>
