<?xml version="1.0" encoding="utf-8"?>
<!-- Generator: Adobe Illustrator 25.0.0, SVG Export Plug-In . SVG Version: 6.00 Build 0)  -->
<svg version="1.1" id="Layer_1" xmlns="http://www.w3.org/2000/svg" xmlns:xlink="http://www.w3.org/1999/xlink" x="0px" y="0px"
	 viewBox="0 0 21 20" style="enable-background:new 0 0 21 20;" xml:space="preserve">
<style type="text/css">
	.st0{fill-rule:evenodd;clip-rule:evenodd;fill:#D90000;}
</style>
<path class="st0" d="M16.4,2.4C14.8,0.9,12.7,0,10.5,0S6.2,0.9,4.6,2.4S2.2,6.1,2.2,8.3c0,3.3,2.1,6.2,4,8.2c1,1,1.9,1.9,2.7,2.4
	c0.4,0.3,1.5,1.1,1.7,1.1s1.3-0.8,1.7-1.1c0.7-0.6,1.7-1.4,2.7-2.4c1.9-2,4-4.9,4-8.2C18.8,6.1,18,4,16.4,2.4z M13.6,15.4
	c-0.9,1-1.8,1.7-2.5,2.3c-0.3,0.2-0.5,0.4-0.7,0.5c-0.2-0.1-0.4-0.3-0.7-0.5c-0.7-0.5-1.6-1.3-2.5-2.3c-1.8-1.9-3.5-4.4-3.5-7
	c0-1.8,0.7-3.5,2-4.7c1.3-1.3,2.9-2,4.7-2s3.5,0.7,4.7,2c1.3,1.3,2,2.9,2,4.7C17.2,10.9,15.5,13.4,13.6,15.4z"/>
<path class="st0" d="M10.5,5C8.7,5,7.2,6.5,7.2,8.3s1.5,3.3,3.3,3.3s3.3-1.5,3.3-3.3S12.3,5,10.5,5z M10.5,10
	c-0.9,0-1.7-0.7-1.7-1.7s0.7-1.7,1.7-1.7c0.9,0,1.7,0.7,1.7,1.7S11.4,10,10.5,10z"/>
</svg>
