<?xml version="1.0" encoding="utf-8"?>
<!-- Generator: Adobe Illustrator 25.0.0, SVG Export Plug-In . SVG Version: 6.00 Build 0)  -->
<svg version="1.1" id="Layer_1" xmlns="http://www.w3.org/2000/svg" xmlns:xlink="http://www.w3.org/1999/xlink" x="0px" y="0px"
	 viewBox="0 0 25 24" style="enable-background:new 0 0 25 24;" xml:space="preserve">
<style type="text/css">
	.st0{fill:#D90000;}
</style>
<path class="st0" d="M22.8,4.3L20,1.5C19.6,1.2,19.2,1,18.7,1s-0.9,0.2-1.3,0.5l-3,3c-0.3,0.3-0.5,0.8-0.5,1.3s0.2,0.9,0.5,1.3
	l2.4,2.4c-0.5,1.2-1.3,2.4-2.3,3.3c-1,1-2.1,1.7-3.3,2.3l-2.4-2.4c-0.3-0.3-0.8-0.5-1.3-0.5c-0.2,0-0.5,0-0.7,0.1s-0.4,0.2-0.6,0.4
	l-3,3C2.9,16,2.7,16.5,2.7,17s0.2,0.9,0.5,1.3L6,21.1C6.6,21.7,7.4,22,8.2,22c0.2,0,0.3,0,0.5,0c3.5-0.6,6.9-2.4,9.7-5.2
	s4.6-6.2,5.2-9.7C23.8,6.1,23.5,5,22.8,4.3z M21.8,6.7c-0.5,3.1-2.2,6.2-4.7,8.7s-5.6,4.2-8.7,4.7C8,20.2,7.6,20,7.3,19.8L4.6,17
	l2.9-2.9l3.1,3.1l0,0l0.6-0.2c1.7-0.6,3.3-1.6,4.6-2.9s2.3-2.9,2.9-4.6L18.9,9l-3.2-3.2l2.9-2.9l2.7,2.7C21.7,5.9,21.8,6.3,21.8,6.7
	z"/>
</svg>
