<svg xmlns="http://www.w3.org/2000/svg" xmlns:xlink="http://www.w3.org/1999/xlink" width="40.721" height="15" viewBox="0 0 40.721 15">
  <defs>
    <clipPath id="clip-path">
      <rect id="Rechteck_166" data-name="Rechteck 166" width="40.721" height="15" fill="none"/>
    </clipPath>
  </defs>
  <g id="Gruppe_106" data-name="Gruppe 106" clip-path="url(#clip-path)">
    <path id="Pfad_100" data-name="Pfad 100" d="M2.272,0H38.449a2.272,2.272,0,0,1,2.272,2.272V12.728A2.272,2.272,0,0,1,38.449,15H2.272A2.272,2.272,0,0,1,0,12.728V2.272A2.272,2.272,0,0,1,2.272,0" fill="#e20a17"/>
    <path id="Pfad_101" data-name="Pfad 101" d="M117.578,21.42,116.544,24.8a.678.678,0,0,1-.648.479h-8.677a.611.611,0,0,0-.584.431l-.2.642a.609.609,0,0,0,.584.787h9.914a1.02,1.02,0,0,0,.975-.72l.348-1.141,1.058-3.459a.644.644,0,0,0-.616-.833h-.538a.611.611,0,0,0-.584.431Z" transform="translate(-83.982 -16.567)" fill="#fff"/>
    <path id="Pfad_102" data-name="Pfad 102" d="M27.174,26.7l1.034-3.384a.678.678,0,0,1,.648-.479h8.677a.611.611,0,0,0,.584-.431l.2-.642a.609.609,0,0,0-.584-.787H27.817a1.019,1.019,0,0,0-.974.72l-.348,1.141L25.437,26.3a.644.644,0,0,0,.616.833h.538a.611.611,0,0,0,.584-.431Z" transform="translate(-20.052 -16.558)" fill="#fff"/>
    <path id="Pfad_103" data-name="Pfad 103" d="M64.985,20.992H55.07a1.019,1.019,0,0,0-.974.72l-.348,1.141L53.2,24.636l-.051.169a.678.678,0,0,1-.648.479H43.825a.611.611,0,0,0-.584.431l-.2.642a.609.609,0,0,0,.584.787h9.914a1.02,1.02,0,0,0,.975-.72l.348-1.141.6-1.954a.677.677,0,0,1,.645-.477h8.677a.611.611,0,0,0,.584-.431l.2-.643a.609.609,0,0,0-.584-.787Z" transform="translate(-33.951 -16.567)" fill="#fff"/>
  </g>
</svg>
