<?xml version="1.0" encoding="utf-8"?>
<!-- Generator: Adobe Illustrator 25.0.0, SVG Export Plug-In . SVG Version: 6.00 Build 0)  -->
<svg version="1.1" id="Layer_1" xmlns="http://www.w3.org/2000/svg" xmlns:xlink="http://www.w3.org/1999/xlink" x="0px" y="0px"
	 viewBox="0 0 20 21" style="enable-background:new 0 0 20 21;" xml:space="preserve">
<style type="text/css">
	.st0{fill:#D90000;}
</style>
<path class="st0" d="M17,9.9L9.6,3.5c-0.1,0-0.1-0.1-0.2-0.1H7.7c-0.1,0-0.2,0.2-0.1,0.3l6.8,5.9H3c-0.1,0-0.2,0.1-0.2,0.2V11
	c0,0.1,0.1,0.2,0.2,0.2h11.4L7.6,17c-0.1,0.1,0,0.3,0.1,0.3h1.8h0.1l7.4-6.4c0.1-0.1,0.1-0.1,0.2-0.2c0-0.1,0.1-0.2,0.1-0.3
	s0-0.2-0.1-0.3C17.1,10,17,9.9,17,9.9z"/>
</svg>
