<svg width="492" height="168" viewBox="0 0 492 168" fill="none" xmlns="http://www.w3.org/2000/svg">
<g clip-path="url(#clip0_13_19)">
<path d="M0 91V128C4.3 132.8 9.70001 135.4 16.1 135.9C25.4 136.6 34.7 137.1 43.9 137.7C45.8 137.8 47.8 137.7 49.4 137.7C50.1 139.2 50.5 139.9 50.8 140.7C56.7 155.2 67.3 164.1 82.7 167.1C83.5 167.3 84.2 167.8 84.9 168.1H94.9C95.8 167.7 96.6 167.2 97.6 167C112 163.9 122 155.5 128 142.1C128.6 140.8 129.3 139.4 129.9 138.1H349.5C350 139.2 350.4 139.9 350.7 140.7C356.6 155.2 367.2 164.1 382.6 167.1C383.4 167.3 384.1 167.8 384.8 168.1H394.8C395.7 167.7 396.5 167.2 397.5 167C411.9 163.9 421.9 155.5 427.9 142.1C428.5 140.8 429.2 139.4 430 137.8H435.5C446.2 137.8 456.8 137.9 467.5 137.8C482.4 137.6 491.4 129.9 491.5 116.1C491.6 102.9 493 89.6 489.8 76.4C487.9 68 487.9 59.4 486.7 51C485.3 40.7 479.9 35.8 469.6 36.3C456.4 37 444 34.6 431.5 30.6C400.5 21 369.2 12 338 2.8C334.7 1.8 331.4 0.9 328 0H236C232.2 1.6 228.3 3 224.7 4.9C206 14.7 187.2 24.4 168.7 34.6C159.9 39.5 151.3 44.4 140.7 43.4C140.4 43.4 140 43.5 139.7 43.5C124.9 44.7 110.2 46 95.4 47.1C80.8 48.2 66.2 49 51.8 52.2C41 54.5 30.5 57.5 20.9 63.1C10.7 69.1 3.3 77.3 1 89.3C0.9 89.9 0.4 90.4 0 91ZM131.5 125.9C130.8 114.2 127 103.9 118.4 95.9C109.8 87.8 99.6 83.9 87.9 84.5C66 85.6 52.9 99.2 47.5 126.2C35.7 126.1 23.7 127 11.9 122.8C11.9 112.1 11.8 102 12 91.8C12.1 89.3 13.4 86.9 14.3 84.1C19.8 90.4 23.9 91.2 31 87.8C37.2 84.8 39.4 81.1 38.2 74.6C35.9 73.7 33.3 72.6 30.2 71.3C36.6 67.6 43.2 65.6 50 63.8C69.8 58.7 90.1 57.4 110.4 57.1C165.7 56.2 221 55.5 276.3 54.8C307.3 54.4 338.3 54.1 369.2 53.7C374.6 53.6 375.5 53 377.4 48.3C375.5 42.3 374 39.4 368.8 35.9C359.3 29.5 349.4 23.6 339.7 17.5C338.3 16.6 336.9 15.8 335.4 14.9C335.6 14.6 335.7 14.3 335.9 14C342.6 15.7 349.4 17.2 356.1 19.3C383.1 27.5 410.1 35.8 437.1 44.3C445 46.8 452.8 48.4 461.1 47.8C465.4 47.5 469.7 47.8 473.7 47.8C475.5 52.1 477.1 55.7 475.8 60.5H460.6V77.8H478.6C479.2 81.3 480.1 84.5 480.2 87.7C480.4 96.2 480.3 104.7 480.3 113.2C480.3 123.1 477.2 126.2 467.1 126.3H431.6C430.9 114.4 427.1 104.2 418.6 96.1C410.1 88 399.8 84.1 388.2 84.5C378.6 84.8 370 88.3 362.7 94.6C353.2 102.8 348.8 113.4 348 126C275.9 125.9 204.1 125.9 131.5 125.9ZM389.9 95.7C406.6 95.7 420 109.1 420 125.8C420 142.5 406.2 156.3 389.5 156.2C372.9 156.1 359.6 142.7 359.6 125.9C359.6 108.8 372.8 95.7 389.9 95.7ZM59.7 126C59 109.2 73.9 95.7 89.4 95.5C102.6 95.3 119.5 104.9 120.1 125.6C120.5 142.3 106.5 156.2 89.8 156.1C73.1 156.1 59.8 142.8 59.7 126ZM282.5 44.3C251.7 45.1 221.8 45.8 190.9 46.5C193 41.7 190.2 39.5 186.9 37.1C202.4 28.4 217.1 19.6 233.2 13.6C236.7 12.3 240.6 11.8 244.4 11.7C256.7 11.5 269 11.6 281.3 11.6C283.1 11.6 284.9 11.8 287.2 11.9C285.6 22.9 284.1 33.3 282.5 44.3ZM298.7 11.7C319.9 19.3 339 28.7 356.5 41.2C356.4 41.7 356.3 42.2 356.1 42.7C335.6 43.2 315.2 43.6 294 44.1C295.6 32.9 297.1 22.6 298.7 11.7Z" fill="black"/>
</g>
<defs>
<clipPath id="clip0_13_19">
<rect width="491.9" height="168" fill="white" transform="matrix(-1 0 0 1 491.9 0)"/>
</clipPath>
</defs>
</svg>
